<?xml version="1.0" encoding="UTF-8" standalone="no"?>
<svg width="180px" height="164px" viewBox="0 0 180 164" version="1.1" xmlns="http://www.w3.org/2000/svg" xmlns:xlink="http://www.w3.org/1999/xlink">
    <!-- Generator: Sketch 39.1 (31720) - http://www.bohemiancoding.com/sketch -->
    <title>buddha + buddash + Path 19</title>
    <desc>Created with Sketch.</desc>
    <defs></defs>
    <g id="Page-1" stroke="none" stroke-width="1" fill="none" fill-rule="evenodd">
        <g id="WELCOME" transform="translate(-117.000000, -57.000000)">
            <g id="buddha-+-buddash-+-Path-19" transform="translate(63.000000, 57.000000)">
                <g id="buddha" transform="translate(100.000000, 0.000000)" fill="#FFC700">
                    <g id="Group">
                        <ellipse id="Oval" cx="46" cy="22.1395349" rx="4.18181818" ry="4.15116279"></ellipse>
                        <path d="M50.1818182,71.2616279 L41.8181818,71.2616279 C39.8931515,71.2616279 38.3333333,72.8100116 38.3333333,74.7209302 C38.3333333,76.6318488 39.8931515,78.1802326 41.8181818,78.1802326 L50.1818182,78.1802326 C52.1068485,78.1802326 53.6666667,76.6318488 53.6666667,74.7209302 C53.6666667,72.8100116 52.1068485,71.2616279 50.1818182,71.2616279 L50.1818182,71.2616279 Z" id="Shape"></path>
                        <path d="M85.030303,111.389535 L78.0606061,111.389535 C72.2952727,111.389535 67.6060606,106.734698 67.6060606,101.011628 L67.6060606,88.9566512 C71.5188485,85.2704186 74.496303,80.587907 76.0756364,75.2591977 C84.6483636,74.1812791 91.3030303,66.912593 91.3030303,58.1162791 C91.3030303,49.7627558 85.307697,42.7749651 77.3636364,41.1684651 L77.3636364,31.8255814 C77.3636364,23.5135698 74.1004242,15.6969302 68.1747879,9.81334884 C62.2477576,3.93115116 54.3733939,0.691860465 46,0.691860465 C28.7053939,0.691860465 14.6363636,14.6577558 14.6363636,31.8255814 L14.6363636,41.1684651 C6.69230303,42.7749651 0.696969697,49.7627558 0.696969697,58.1162791 C0.696969697,66.9181279 7.36,74.1909651 15.938303,75.2619651 C17.4075152,80.2115349 20.0922424,84.7238488 23.8252121,88.4308372 C24.0078182,88.6121047 24.2071515,88.7670814 24.3939394,88.942814 L24.3939394,101.011628 C24.3939394,106.734698 19.7047273,111.389535 13.9393939,111.389535 L6.96969697,111.389535 C5.04466667,111.389535 3.48484848,112.937919 3.48484848,114.848837 C3.48484848,116.759756 5.04466667,118.30814 6.96969697,118.30814 L13.9393939,118.30814 C23.5478182,118.30814 31.3636364,110.549616 31.3636364,101.011628 L31.3636364,93.960186 C35.8228485,96.3042093 40.8145455,97.5523256 46,97.5523256 C51.2453939,97.5523256 56.2315152,96.2294884 60.6363636,93.9131395 L60.6363636,101.011628 C60.6363636,110.549616 68.4521818,118.30814 78.0606061,118.30814 L85.030303,118.30814 C86.9553333,118.30814 88.5151515,116.759756 88.5151515,114.848837 C88.5151515,112.937919 86.9553333,111.389535 85.030303,111.389535 L85.030303,111.389535 Z M77.3636364,66.4186047 L77.3636364,48.3444419 C81.4172121,49.7738256 84.3333333,53.6081163 84.3333333,58.1176628 C84.3333333,62.6535 81.3823636,66.5099302 77.2897576,67.9171744 C77.3134545,67.4162674 77.3636364,66.9222791 77.3636364,66.4186047 L77.3636364,66.4186047 Z M7.66666667,58.1162791 C7.66666667,53.6081163 10.5827879,49.7724419 14.6363636,48.3430581 L14.6363636,66.4186047 C14.6363636,66.9222791 14.6865455,67.4162674 14.7102424,67.9157907 C10.6176364,66.5071628 7.66666667,62.6521163 7.66666667,58.1162791 L7.66666667,58.1162791 Z M70.3939394,40.8197674 L57.8484848,40.8197674 L57.8484848,38.744186 C57.8484848,37.1113953 60.5304242,35.2848837 64.1212121,35.2848837 C67.712,35.2848837 70.3939394,37.1113953 70.3939394,38.744186 L70.3939394,40.8197674 L70.3939394,40.8197674 Z M21.6060606,38.744186 C21.6060606,37.5569535 24.862303,35.2848837 29.969697,35.2848837 C35.0770909,35.2848837 38.3333333,37.5569535 38.3333333,38.744186 L38.3333333,40.8197674 L21.6060606,40.8197674 L21.6060606,38.744186 L21.6060606,38.744186 Z M46,90.6337209 C39.4889091,90.6337209 33.3639394,88.1139651 28.7541818,83.5393837 C25.322303,80.1326628 23.0153333,75.8611163 22.0786061,71.1633837 C21.7649697,69.6426744 21.6060606,68.0458605 21.6060606,66.4186047 L21.6060606,47.7383721 L38.3333333,47.7383721 L38.3333333,62.2674419 C38.3333333,64.1783605 39.8931515,65.7267442 41.8181818,65.7267442 L50.1818182,65.7267442 C52.1068485,65.7267442 53.6666667,64.1783605 53.6666667,62.2674419 C53.6666667,60.3565233 52.1068485,58.8081395 50.1818182,58.8081395 L45.3030303,58.8081395 L45.3030303,38.744186 C45.3030303,32.9242558 38.5675152,28.3662791 29.969697,28.3662791 C26.8988485,28.3662791 24.0747273,28.9557442 21.7008485,29.9686279 C22.6626667,17.483314 33.1813333,7.61046512 46,7.61046512 C52.5110909,7.61046512 58.6360606,10.1302209 63.2458182,14.7048023 C67.3035758,18.7341977 69.7527273,23.9300698 70.2810303,29.5258372 C68.4493939,28.7869302 66.3612727,28.3662791 64.1212121,28.3662791 C56.695697,28.3662791 50.8787879,32.9242558 50.8787879,38.744186 L50.8787879,44.2790698 C50.8787879,46.1899884 52.4386061,47.7383721 54.3636364,47.7383721 L70.3939394,47.7383721 L70.3939394,66.4186047 C70.3939394,68.0458605 70.2350303,69.6426744 69.9172121,71.1827558 C67.6646061,82.4531628 57.6059394,90.6337209 46,90.6337209 L46,90.6337209 Z" id="Shape"></path>
                    </g>
                </g>
                <text id="buddash" font-family="AvenirNext-UltraLight, Avenir Next" font-size="44" font-weight="300" fill="#FFC700">
                    <tspan x="54.486" y="163">bud</tspan>
                    <tspan x="134.742" y="163" font-family="AvenirNext-Bold, Avenir Next" font-weight="bold">dash</tspan>
                </text>
                <path d="M183.665039,114.849609 C197.219984,115.806104 215.860352,112.076312 215.860352,130.666016" id="Path-19" stroke="#FFC700" stroke-width="7"></path>
                <text id="Type-something" font-family="AvenirNext-UltraLight, Avenir Next" font-size="44" font-weight="300" fill="#FFC700">
                    <tspan x="50.372" y="163">bud</tspan>
                </text>
            </g>
        </g>
    </g>
</svg>